<svg width="544" height="519" viewBox="0 0 544 519" fill="none" xmlns="http://www.w3.org/2000/svg">
<path d="M483.006 0H47.037V429.738H483.006V0Z" fill="#F3F3F3"/>
<path d="M483.006 0H47.037V32.711H483.006V0Z" fill="#E1E1E1"/>
<path d="M70.042 21.927C72.8874 21.927 75.194 19.6204 75.194 16.775C75.194 13.9296 72.8874 11.623 70.042 11.623C67.1966 11.623 64.89 13.9296 64.89 16.775C64.89 19.6204 67.1966 21.927 70.042 21.927Z" fill="#FD8369"/>
<path d="M86.638 21.927C89.4833 21.927 91.79 19.6204 91.79 16.775C91.79 13.9296 89.4833 11.623 86.638 11.623C83.7926 11.623 81.486 13.9296 81.486 16.775C81.486 19.6204 83.7926 21.927 86.638 21.927Z" fill="#FD8369"/>
<path d="M103.233 21.927C106.078 21.927 108.385 19.6204 108.385 16.775C108.385 13.9296 106.078 11.623 103.233 11.623C100.388 11.623 98.081 13.9296 98.081 16.775C98.081 19.6204 100.388 21.927 103.233 21.927Z" fill="#FD8369"/>
<path d="M242.645 56.556H68.365V150.975H242.645V56.556Z" fill="#10D6A6"/>
<path d="M242.645 173.381H68.365V267.8H242.645V173.381Z" fill="#3454D1"/>
<path d="M459.342 173.381H285.062V377.017H459.342V173.381Z" fill="white"/>
<path d="M512.183 63.385H272.9V72.491H512.183V63.385Z" fill="#E1E1E1"/>
<path d="M512.183 89.087H272.9V98.193H512.183V89.087Z" fill="#E1E1E1"/>
<path d="M512.183 114.789H272.9V123.895H512.183V114.789Z" fill="#E1E1E1"/>
<path d="M512.183 140.49H272.9V149.596H512.183V140.49Z" fill="#E1E1E1"/>
<path d="M403.684 427.282H394.518V441.181H403.684V427.282Z" fill="#DE8E68"/>
<path d="M511.703 485.994H502.537V499.893H511.703V485.994Z" fill="#DE8E68"/>
<path d="M461.797 298.654C450.714 298.654 401.227 347.841 396.914 356.108C392.601 364.375 393.859 429.139 393.859 429.139L404.523 431.176L421.837 370.846C429.386 369.946 461.137 363.117 477.554 349.877C493.97 336.577 475.996 306.921 475.996 306.921L461.797 298.654Z" fill="#10D6A6"/>
<path d="M443.286 231.854C437.834 236.707 426.93 248.869 426.032 250.426C423.276 249.108 394.579 234.01 392.422 233.052C390.265 232.094 385.712 224.485 384.154 224.485C383.254 224.485 382.417 226.222 382.417 227.421C382.418 228.979 382.969 230.486 383.975 231.675C381.938 231.375 363.965 229.998 363.965 231.196C363.965 234.311 384.095 238.445 385.653 239.284C387.211 240.123 419.982 270.438 431.365 270.438C435.798 270.438 455.389 257.138 455.389 255.7C457.246 254.442 460.122 252.585 460.122 252.585V242.039L453.292 237.066C453.291 237.006 444.364 230.895 443.286 231.854Z" fill="#DE8E68"/>
<path d="M442.569 228.378C443.769 218.672 466.114 196.625 476.359 206.451C485.286 215.018 469.11 245.632 464.976 246.831C460.3 247.31 442.269 234.969 442.569 228.378Z" fill="#FEBF92"/>
<path d="M510.745 208.189C522.128 203.396 538.064 229.757 536.267 239.342C536.267 243.536 512.902 252.522 509.307 250.126C505.712 247.73 499.362 212.982 510.745 208.189Z" fill="#FED892"/>
<path d="M464.853 302.907L502.477 485.934H512.123L515.538 322.678C515.538 319.862 515.298 302.129 515.298 299.852C504.394 303.027 481.153 305.544 464.853 302.907Z" fill="#10D6A6"/>
<path d="M502.537 499.893H511.703V509.838H486.421L502.537 499.893Z" fill="black"/>
<path d="M394.518 441.181H403.684V451.126H378.402L394.518 441.181Z" fill="black"/>
<path d="M448.557 451.126H339.46V514.991H448.557V451.126Z" fill="#FFA491"/>
<path d="M65.489 518.466L23.372 517.987L8.63403 463.887H79.269L65.489 518.466Z" fill="#FFA491"/>
<path d="M485.822 194.11C513.98 194.11 523.805 217.535 523.805 225.144C523.805 232.753 514.998 279.183 515.358 299.852C515.418 303.267 464.858 306.322 457.964 301.352C454.728 299.01 447.778 194.11 485.822 194.11Z" fill="#FECC92"/>
<path d="M536.266 239.342C544.234 251.564 543.755 279.722 543.755 283.975C543.755 288.228 514.039 326.452 511.463 326.452C509.905 324.894 505.592 320.161 505.592 318.724C506.97 316.208 524.644 277.565 527.819 274.81C526.381 273.073 513.74 253.242 513.201 249.947C524.284 248.089 535.008 243.416 536.266 239.342Z" fill="#DE8E68"/>
<path d="M536.266 239.343C538.066 229.757 523.505 201.959 510.744 208.19C499.661 213.642 505.711 247.731 509.306 250.127C513.62 251.984 534.589 245.692 536.266 239.343Z" fill="#FED892"/>
<path d="M478.633 188.359C477.915 191.709 477.834 195.164 478.393 198.544C478.453 198.664 490.375 199.562 491.693 197.466C491.753 195.729 494.629 180.272 498.523 175.479C498.882 174.94 498.104 173.442 498.104 173.442L484.265 179.193L478.633 188.359Z" fill="#D38466"/>
<path d="M496.541 174.759C496.879 175.267 497.332 175.688 497.862 175.99C498.393 176.292 498.987 176.465 499.596 176.496C501.873 176.496 507.145 174.396 507.145 166.91C507.145 161.518 501.873 158.762 501.873 156.186C501.873 153.73 502.532 153.67 502.532 151.633C502.532 150.614 501.513 147.26 498.338 147.26C496.538 147.26 495.882 148.76 494.084 148.76C492.107 148.76 490.31 144.926 487.314 144.926C485.277 144.926 483.36 146.843 481.203 146.843C478.747 146.843 477.069 143.188 473.654 143.188C470.119 143.188 468.861 146.363 467.483 146.363C465.746 146.363 465.446 145.884 463.709 145.884C462.486 146.172 461.393 146.857 460.602 147.833C459.81 148.809 459.365 150.02 459.336 151.276C459.336 153.732 460.354 157.746 465.447 157.746C468.447 157.746 470.12 162.479 472.756 162.479C473.775 162.479 474.673 161.64 474.913 162.06C475.932 163.86 478.028 168.77 478.028 168.77L487.554 174.102L496.541 174.759Z" fill="#FD8369"/>
<path d="M494.449 172.304C494.449 173.143 494.149 173.322 492.891 173.322C492.503 173.255 492.15 173.059 491.889 172.765C491.627 172.471 491.474 172.097 491.453 171.704C491.453 169.727 492.891 169.304 492.891 166.731C492.891 162.358 481.448 160.081 477.434 157.804C475.963 159.277 474.962 161.154 474.558 163.196L471.982 176.436C471.681 177.813 471.657 179.236 471.912 180.622C472.166 182.007 472.695 183.329 473.467 184.508C474.239 185.687 475.238 186.701 476.406 187.489C477.574 188.278 478.887 188.825 480.269 189.1C481.651 189.375 483.074 189.372 484.455 189.09C485.836 188.808 487.147 188.254 488.311 187.46C489.475 186.665 490.469 185.647 491.235 184.464C492.001 183.281 492.523 181.957 492.771 180.57L493.19 178.293C493.405 178.357 493.626 178.397 493.849 178.413C494.223 178.386 494.588 178.286 494.923 178.118C495.258 177.95 495.557 177.717 495.802 177.433C496.047 177.149 496.233 176.82 496.35 176.464C496.468 176.108 496.513 175.732 496.485 175.358C496.606 173.804 494.449 171.044 494.449 172.304Z" fill="#DE8E68"/>
<path d="M49.972 442.678C37.812 361.26 8.035 318.544 4.261 320.161C-1.071 322.498 -2.62899 368.209 6.89701 415.419C7.13701 415.419 7.31601 415.359 7.55601 415.359C8.20955 415.357 8.85699 415.485 9.46112 415.734C10.0652 415.983 10.6141 416.35 11.0763 416.812C11.5384 417.274 11.9046 417.823 12.154 418.427C12.4033 419.031 12.5307 419.678 12.529 420.332C12.5427 421.124 12.3574 421.907 11.99 422.609C12.9199 423.073 13.6812 423.817 14.1675 424.735C14.6539 425.654 14.8408 426.702 14.7021 427.732C14.5635 428.762 14.1062 429.723 13.3943 430.48C12.6824 431.237 11.7515 431.753 10.732 431.955C13.4872 442.757 17.0108 453.348 21.276 463.648H47.636C50.2512 456.987 51.0571 449.752 49.972 442.678Z" fill="#10D6A6"/>
<path d="M120.368 356.348C112.999 356.348 105.091 377.556 96.344 377.556C94.427 377.556 93.169 375.456 93.169 373.482C93.169 371.565 99.22 350.476 99.22 340.232C99.2179 339.291 99.1577 338.35 99.04 337.416C98.0312 338.038 96.8703 338.37 95.685 338.375C94.0664 338.374 92.5056 337.773 91.3048 336.687C90.104 335.602 89.3484 334.11 89.1844 332.499C89.0204 330.889 89.4596 329.275 90.417 327.97C91.3743 326.665 92.7818 325.761 94.367 325.434C92.7743 323.329 90.7069 321.629 88.3333 320.473C85.9596 319.318 83.3466 318.739 80.707 318.784C72.979 318.784 62.075 325.674 62.075 336.338C62.075 339.338 62.975 346.938 62.975 353.832C62.975 392.894 32.361 398.765 32.361 442.02C32.361 451.126 37.393 461.131 38.891 463.588C38.891 463.588 64.533 463.888 66.991 463.888C69.449 463.888 89.398 430.578 91.674 427.043C100.361 413.623 129.238 398.885 129.238 366.833C129.234 362.339 127.617 356.348 120.368 356.348Z" fill="#10D6A6"/>
</svg>
