<svg width="462" height="578" viewBox="0 0 462 578" fill="none" xmlns="http://www.w3.org/2000/svg">
<path opacity="0.16" d="M400.437 153.08C422.792 195.141 392.669 265.08 374.792 335.612C356.915 406.144 351.092 476.865 308.923 512.712C266.764 548.657 188.174 549.53 123.957 519.121C59.74 488.712 9.911 427.223 1.367 363.59C-7.177 299.957 25.367 234.353 70.051 187.276C114.735 140.199 171.345 111.501 237.242 104.313C303.139 97.125 377.999 111.109 400.437 153.08Z" fill="#F3F3F3"/>
<path d="M442.331 28.732L306.653 57.842V29.431L441.772 0.446991L461.877 10.907L442.331 28.732Z" fill="#27B4A4"/>
<path d="M306.653 29.431L169.466 0L151.436 10.374L167.895 28.074L306.653 57.842V29.431Z" fill="#27B4A4"/>
<path d="M41.438 450.255C40.738 459.93 36.548 503.64 39.412 517.116H163.759L150.968 452.505L41.438 450.255Z" fill="#34D1BF"/>
<path d="M121.914 303.239C137.443 292.865 175.104 334.305 176.808 346.621C173.008 352.908 146.208 371.49 136.346 370.456C125.916 362.038 106.929 313.243 121.914 303.239Z" fill="#FFC78E"/>
<path d="M306.653 12.784V571.906" stroke="#FFD98E" stroke-width="11" stroke-linecap="round" stroke-linejoin="round"/>
<path d="M87.341 283.295C176.815 283.295 163.081 430.555 157.353 455.753C134.565 468.553 61.543 466.769 40.418 453.189C32.321 411.114 31.364 283.295 87.341 283.295Z" fill="#FFD98E"/>
<path d="M17.951 357.372C15.451 365.755 6.823 432.12 20.051 442.138C33.279 452.156 82.315 415.76 91.069 408.257C99.823 400.754 89.311 388.382 80.002 391.002C70.693 393.622 50.969 400.51 47.336 402.759C50.829 394.753 57.336 372.504 57.27 366.377C57.204 360.25 17.951 357.372 17.951 357.372Z" fill="#E49D75"/>
<path d="M271.046 429.353L91.882 478.247V342.276L271.046 293.382V429.353Z" fill="#F3F3F3"/>
<path d="M306.653 58.296L170.787 87.441L151.436 77.249L165.429 60.183L306.654 29.883L306.653 58.296Z" fill="#34D1BF"/>
<path d="M444.203 59.393L306.653 29.885V58.296L442.527 87.441L461.878 76.718L444.203 59.393Z" fill="#34D1BF"/>
<path d="M48.563 227.346C67.5837 227.346 83.003 211.927 83.003 192.906C83.003 173.885 67.5837 158.466 48.563 158.466C29.5423 158.466 14.123 173.885 14.123 192.906C14.123 211.927 29.5423 227.346 48.563 227.346Z" fill="black"/>
<path d="M97.785 275.583C120.162 275.583 138.303 257.442 138.303 235.065C138.303 212.688 120.162 194.547 97.785 194.547C75.4075 194.547 57.267 212.688 57.267 235.065C57.267 257.442 75.4075 275.583 97.785 275.583Z" fill="#E49D75"/>
<path d="M70.477 264.992C96.324 244.614 102.06 212.312 102.777 194.862C101.12 194.658 99.4518 194.553 97.782 194.548C89.6115 194.55 81.6323 197.021 74.8916 201.639C68.1509 206.256 62.9637 212.803 60.0106 220.422C57.0575 228.04 56.4766 236.373 58.3441 244.327C60.2115 252.281 64.4402 259.485 70.475 264.993L70.477 264.992Z" fill="black"/>
<path d="M121.167 212.089C124.307 212.089 127.44 211.785 130.522 211.179C125.516 204.327 118.488 199.217 110.426 196.57C102.364 193.922 93.6744 193.87 85.581 196.42C90.0966 201.363 95.5938 205.31 101.721 208.008C107.849 210.706 114.472 212.096 121.167 212.089Z" fill="black"/>
<path d="M107.369 296.498C107.369 301.772 78.569 301.66 78.569 296.498V258.551H107.369V296.498Z" fill="#E49D75"/>
<path d="M49.926 299.592C68.334 302.757 67.126 358.734 59.881 368.842C52.79 370.805 20.572 365.824 14.124 358.287C12.356 345.007 32.168 296.532 49.926 299.592Z" fill="#FFE4AD"/>
<path d="M95.522 409.388C104.882 409.388 112.47 400.409 112.47 389.332C112.47 378.255 104.882 369.276 95.522 369.276C86.1619 369.276 78.574 378.255 78.574 389.332C78.574 400.409 86.1619 409.388 95.522 409.388Z" fill="#E49D75"/>
<path d="M267.7 366.105C273.183 366.105 277.627 358.764 277.627 349.709C277.627 340.654 273.183 333.313 267.7 333.313C262.217 333.313 257.773 340.654 257.773 349.709C257.773 358.764 262.217 366.105 267.7 366.105Z" fill="#E49D75"/>
</svg>
