<svg xmlns="http://www.w3.org/2000/svg" width="195" height="72.156" viewBox="0 0 195 72.156">
  <defs>
    <style>
      .cls-1, .cls-3 {
        fill: #34d1bf;
      }

      .cls-2, .cls-4 {
        fill: #3454d1;
      }

      .cls-3 {
        font-size: 30px;
        font-family: Poppins-Bold, Poppins;
        font-weight: 700;
      }

      .cls-5, .cls-6 {
        stroke: none;
      }

      .cls-6 {
        fill: #fff;
      }
    </style>
  </defs>
  <g id="Group_69" data-name="Group 69" transform="translate(-135 -42.587)">
    <g id="Group_60" data-name="Group 60" transform="translate(140 47.587)">
      <rect id="Rectangle_12" data-name="Rectangle 12" class="cls-1" width="59.352" height="59.352" rx="14" transform="translate(0.013 0.013)"/>
      <g id="Intersection_1" data-name="Intersection 1" class="cls-2" transform="translate(0 0)">
        <path class="cls-5" d="M 6.452202796936035 61.19803619384766 L 2.287462711334229 57.00056838989258 C -0.7997772693634033 53.88907623291016 -2.499997138977051 49.76175689697266 -2.499997138977051 45.37890625 L -2.499997138977051 14.00039768218994 C -2.499997138977051 11.77402687072754 -2.063367128372192 9.612887382507324 -1.202227234840393 7.577027320861816 C -0.3710172474384308 5.611897468566895 0.8184027671813965 3.847547292709351 2.332972764968872 2.332967281341553 C 3.84755277633667 0.8183973431587219 5.611902713775635 -0.3710226714611053 7.577032566070557 -1.202232718467712 C 9.612893104553223 -2.063372611999512 11.77403259277344 -2.50000262260437 14.00040245056152 -2.50000262260437 L 30.28274345397949 -2.50000262260437 L 31.66061210632324 -2.50000262260437 L 32.39642333984375 -1.335052728652954 C 33.04727172851562 -0.3046126663684845 36.42749404907227 5.148227214813232 39.06271362304688 11.31815719604492 C 40.59688186645508 14.91017723083496 41.62301254272461 18.14340782165527 42.11260223388672 20.92805671691895 C 42.77497100830078 24.69543647766113 42.46687316894531 27.77430725097656 41.19684219360352 30.07914733886719 C 40.35386276245117 31.60898780822754 39.11021423339844 32.78378677368164 37.50043106079102 33.57090759277344 C 35.92979431152344 34.33888626098633 33.99816131591797 34.72850799560547 31.75920295715332 34.72892761230469 C 31.75801277160645 34.72892761230469 31.75674629211426 34.72892761230469 31.75555610656738 34.72892761230469 C 30.53783988952637 34.72893142700195 29.19390106201172 34.61383438110352 27.76083183288574 34.38680648803711 C 26.26787185668945 34.15029907226562 24.83121299743652 34.03037643432617 23.49077224731445 34.03037643432617 C 16.84600257873535 34.03037643432617 12.22743320465088 36.84587860107422 9.371172904968262 42.63775634765625 C 6.956202983856201 47.53478622436523 6.601922988891602 53.11442565917969 6.561702728271484 55.28603744506836 L 6.452202796936035 61.19803619384766 Z"/>
        <path class="cls-6" d="M 4.062136173248291 55.23973846435547 C 4.153661727905273 50.29831314086914 5.672688007354736 31.5303783416748 23.49076652526855 31.5303783416748 C 24.9344596862793 31.5303783416748 26.48640632629395 31.65374374389648 28.1519947052002 31.9175968170166 C 29.48690605163574 32.12907409667969 30.68345832824707 32.22913360595703 31.75872230529785 32.22893142700195 C 50.21462249755859 32.22544097900391 31.97783660888672 2.683722019195557 30.28273582458496 -3.263406142650638e-06 L 14.00039482116699 -3.263406142650638e-06 C 6.268500804901123 -3.263406142650638e-06 6.870942797831958e-06 6.268502712249756 6.870942797831958e-06 14.00039672851562 L 6.870942797831958e-06 45.37890243530273 C 6.870942797831958e-06 49.22503280639648 1.551395058631897 52.70926666259766 4.062136173248291 55.23973846435547 M 8.842266082763672 67.15634155273438 L 0.512795090675354 58.76140975952148 C -1.214840173721313 57.02021026611328 -2.571428537368774 54.99477386474609 -3.519310712814331 52.74137496948242 C -4.501816749572754 50.40564346313477 -4.999993324279785 47.92855072021484 -4.999993324279785 45.37890243530273 L -4.999993324279785 14.00039672851562 C -4.999993324279785 11.43762016296387 -4.496910572052002 8.948808670043945 -3.504722595214844 6.603114604949951 C -2.547463655471802 4.340008735656738 -1.178146123886108 2.308561325073242 0.5652068853378296 0.5652084946632385 C 2.308559894561768 -1.17815625667572 4.340006828308105 -2.547473907470703 6.603112697601318 -3.504732608795166 C 8.948806762695312 -4.496921062469482 11.43761825561523 -5.000003337860107 14.00039482116699 -5.000003337860107 L 30.28273582458496 -5.000003337860107 L 33.03847885131836 -5.000003337860107 L 34.51010131835938 -2.670097351074219 C 35.17878341674805 -1.611415028572083 38.65178298950195 3.991173267364502 41.36178207397461 10.33620834350586 C 45.34848785400391 19.67041969299316 46.01076126098633 26.52305603027344 43.38642883300781 31.28566741943359 C 42.29035949707031 33.27481842041016 40.67950057983398 34.79931259155273 38.59859466552734 35.81679534912109 C 36.68326568603516 36.75332641601562 34.3823127746582 37.22843170166016 31.75966644287109 37.22892761230469 C 30.40717124938965 37.22892761230469 28.93159484863281 37.10346603393555 27.36963081359863 36.85600662231445 C 26.00567817687988 36.63994979858398 24.70061874389648 36.5303840637207 23.49077224731445 36.5303840637207 C 17.8143253326416 36.5303840637207 14.04018306732178 38.82239532470703 11.61334800720215 43.74349212646484 C 9.421360015869141 48.18836212158203 9.098395347595215 53.32863235473633 9.061277389526367 55.33233642578125 L 8.842266082763672 67.15634155273438 Z"/>
      </g>
    </g>
    <text id="hirewd" class="cls-3" transform="translate(223 88)"><tspan x="0" y="0">hire</tspan><tspan class="cls-4" y="0">wd</tspan></text>
  </g>
</svg>
