<svg width="578" height="308" viewBox="0 0 578 308" fill="none" xmlns="http://www.w3.org/2000/svg">
<path opacity="0.1" d="M24.4981 42.9089C25.4341 48.8479 27.8261 54.5839 27.8471 60.5899C27.9251 80.2159 4.11306 92.2699 0.468056 111.553C-1.69594 122.993 3.90906 134.683 11.8141 143.219C19.7191 151.755 29.7971 157.902 39.0791 164.919C64.7629 184.378 84.5603 210.566 96.2791 240.583C98.782 246.561 100.473 252.846 101.308 259.273C101.792 263.953 101.563 268.743 102.66 273.314C107.002 291.458 129.02 298.499 147.637 299.674C177.62 301.535 207.633 296.522 235.384 285.019C241.624 282.419 248.067 279.465 254.765 280.198C260.121 280.786 264.9 283.682 269.601 286.319C283.445 294.089 298.179 300.155 313.481 304.385C321.957 306.725 330.855 308.504 339.514 306.985C365.514 302.398 379.332 270.864 404.845 263.968C422.495 259.199 440.862 267.53 456.692 276.677C472.522 285.824 488.861 296.36 507.135 296.386C531.514 296.417 551.556 277.967 568.093 260.057C571.562 256.297 575.087 252.366 576.741 247.524C580.095 237.695 574.661 226.655 566.626 220.051C558.591 213.447 548.461 210.171 538.784 206.395C522.38 199.996 506.726 191.822 492.1 182.019C482.636 175.675 473.467 168.498 466.993 159.138C461.424 151.067 458.08 141.712 454.346 132.638C446.161 112.778 434.585 92.5959 415.256 83.2769C399.473 75.6639 381.142 76.5169 363.623 76.3139C337.809 76.0279 311.34 72.9229 288.453 60.9839C269.124 50.9009 253.247 34.9839 233.632 25.4509C202.432 10.3029 166.762 13.2719 133.142 13.8439C116.985 14.1199 97.7801 15.7319 82.2631 10.4379C70.7861 6.52193 64.8791 -1.48107 51.6961 1.74293C33.6661 6.14293 21.6171 24.5879 24.4981 42.9089Z" fill="#10D6A6"/>
<path d="M502.517 185.858C501.701 183.155 501.786 180.26 502.761 177.61C504.321 173.575 508.123 170.662 509.461 166.539C511.947 158.879 505.249 151.708 501.141 144.766C497.373 138.325 495.665 130.885 496.248 123.445C496.888 115.457 500.159 107.818 500.408 99.8099C500.632 92.3479 498.214 85.0879 495.827 78.0159C493.856 72.1709 491.849 66.2579 488.515 61.0679C482.215 51.2549 471.015 45.0879 459.503 44.0679C454.069 43.5839 448.754 45.3519 443.413 44.6609C435.997 43.7039 428.987 41.7799 421.426 41.5409C414.244 41.3279 406.304 42.2409 401.41 47.5009C397.671 51.5309 396.475 57.3499 393.053 61.6559C388.196 67.7659 379.704 69.8619 374.332 75.5199C372.011 78.0205 370.381 81.0825 369.603 84.4045C368.825 87.7265 368.926 91.1938 369.896 94.4649C370.64 96.8779 371.857 99.1189 372.647 101.517C375.97 111.533 371.607 122.245 368.97 132.459C368.673 133.293 368.619 134.195 368.814 135.059C369.23 136.307 370.54 136.959 371.627 137.701C375.184 140.124 376.999 144.513 377.347 148.801C377.695 153.089 376.702 157.366 375.725 161.557C373.234 172.212 370.119 183.627 361.908 190.715C360.417 187.159 358.654 183.724 356.635 180.439C351.612 172.295 347.893 162.239 347.835 152.612C347.831 152.583 347.831 152.553 347.835 152.524C347.835 152.004 347.861 151.484 347.892 150.964C348.542 139.607 353.451 128.65 353.342 117.344C353.342 116.429 353.316 115.512 353.264 114.593C352.624 104.915 347.975 95.9659 342.645 87.8639C338.667 81.8159 334.184 75.9759 328.445 71.5719C319.568 64.8169 308.289 61.8839 297.207 60.3339C286.125 58.7839 276.042 57.3279 264.872 56.5789C252.859 55.7729 239.64 55.3209 230.145 62.7149C217.763 72.3559 217.077 90.9779 207.638 103.515C202.022 110.972 193.077 116.734 190.118 125.205C189.317 123.126 188.649 120.999 188.118 118.835C188.087 118.689 188.056 118.549 188.024 118.403C191.593 108.181 192.423 97.2038 190.432 86.5619C190.667 84.8385 190.787 83.1013 190.791 81.3619C190.849 79.4692 190.645 77.5775 190.183 75.7409C188.847 70.6759 185.16 66.6249 181.597 62.7819C180.3 61.3148 178.892 59.9501 177.385 58.6999C168.064 47.404 155.03 39.7896 140.613 37.2167C126.195 34.6439 111.332 37.2802 98.679 44.6547C86.0258 52.0293 76.4063 63.6618 71.5385 77.4746C66.6708 91.2874 66.872 106.381 72.106 120.059C71.7471 123.62 70.216 126.962 67.7531 129.559C66.6041 130.698 65.1161 132.123 65.3661 133.579C65.2885 133.994 65.3468 134.422 65.5321 134.801C65.7875 135.255 66.1432 135.644 66.5721 135.94C70.2095 138.721 74.7402 140.073 79.3071 139.74C83.1605 151.065 90.715 160.763 100.753 167.27C100.753 167.617 100.741 167.953 100.717 168.279C100.717 168.856 100.67 169.428 100.644 170.011V170.25C100.644 170.198 82.537 193.85 65.802 194.733C56.868 195.201 49.0731 201.233 43.1651 208.118C36.0741 216.379 31.6931 225.885 31.3201 228.516C30.6281 233.342 25.8031 256.795 25.8031 256.795H164.827C163.184 265.24 160.968 275.995 160.968 275.995H386.031C385.511 268.761 384.931 262.074 384.398 256.411H412.693L412.662 256.583H543.188L551.467 244.16C549.413 207.965 528.06 188.063 502.517 185.858ZM177.552 145.421C180.489 147.001 183.643 148.137 186.913 148.791C188.333 149.082 189.919 149.264 191.13 148.469C191.933 147.862 192.527 147.021 192.83 146.061L192.892 146.217C196.402 155.057 199.652 164.179 200.282 173.674C200.339 174.568 200.376 175.463 200.382 176.363C200.396 181.78 199.279 187.139 197.101 192.099C185.344 185.916 174.005 178.968 163.159 171.299L162.426 170.987C162.426 171.044 162.681 171.694 162.982 172.787C163.055 173.052 163.133 173.343 163.211 173.655C162.467 171.255 161.791 168.798 161.199 166.297L160.999 165.408C168.081 160.21 173.769 153.344 177.557 145.418L177.552 145.421Z" fill="url(#paint0_linear)"/>
<path d="M419.339 43.3819C412.272 43.1689 404.451 44.0679 399.639 49.2479C395.957 53.2109 394.782 58.9409 391.412 63.1799C386.633 69.1969 378.276 71.2559 372.982 76.8249C370.697 79.2862 369.093 82.3002 368.327 85.5701C367.561 88.84 367.66 92.253 368.614 95.4729C369.347 97.8439 370.543 100.054 371.323 102.41C374.594 112.291 370.323 122.81 367.683 132.863C367.388 133.687 367.336 134.579 367.532 135.432C367.938 136.659 369.232 137.304 370.299 138.032C373.799 140.419 375.588 144.732 375.905 148.953C376.222 153.174 375.271 157.383 374.305 161.506C371.752 172.427 368.527 184.184 359.661 191.064C355.917 194.002 350.914 196.384 349.937 201.064C348.793 206.545 354.024 211.205 359.043 213.685C373.775 220.965 390.879 221.069 406.995 224.314C421.186 227.174 435.342 232.593 449.705 230.741C456.105 229.919 462.227 227.668 468.286 225.441L506.009 211.541C507.075 211.215 508.077 210.711 508.973 210.049C511.245 208.156 511.323 204.558 510.086 201.869C508.849 199.18 506.602 197.121 504.626 194.916C500.32 190.095 497.044 183.288 499.395 177.266C500.955 173.293 504.673 170.428 505.989 166.345C508.433 158.805 501.829 151.745 497.825 144.91C494.121 138.577 492.441 131.263 493.01 123.948C493.639 116.085 496.858 108.566 497.092 100.682C497.31 93.3389 494.934 86.1939 492.583 79.2309C490.643 73.4799 488.667 67.6599 485.383 62.5489C479.183 52.8919 468.16 46.8229 456.823 45.8149C451.472 45.3419 446.246 47.0789 440.988 46.4029C433.686 45.4979 426.78 43.6049 419.339 43.3819Z" fill="#F7D6C8"/>
<path d="M429.889 249.734C429.889 249.734 387.121 222.921 403.753 192.016C407.182 185.843 409.197 178.985 409.653 171.938C409.745 170.312 409.745 168.681 409.653 167.055V166.816C409.598 165.977 409.523 165.152 409.429 164.341C408.075 154.309 403.732 144.917 396.964 137.388C396.964 137.388 467.901 116.688 456.023 135.349C450.511 144.013 452.159 152.51 455.851 161.304C456.241 162.23 456.657 163.166 457.089 164.097C461.353 173.369 467.271 182.974 468.925 193.39C472.313 214.773 429.889 249.734 429.889 249.734Z" fill="#EFB7B9"/>
<path opacity="0.1" d="M456.021 135.349C450.509 144.013 452.157 152.51 455.849 161.304C449.006 165.716 441.151 168.312 433.026 168.847C424.901 169.382 416.774 167.839 409.411 164.362C408.07 154.323 403.732 144.922 396.962 137.388C396.962 137.388 467.903 116.68 456.021 135.349Z" fill="black"/>
<path d="M429.884 167.933C456.315 167.933 477.742 146.506 477.742 120.075C477.742 93.6437 456.315 72.2169 429.884 72.2169C403.453 72.2169 382.026 93.6437 382.026 120.075C382.026 146.506 403.453 167.933 429.884 167.933Z" fill="#EFB7B9"/>
<path opacity="0.1" d="M409.65 167.071V166.837L409.71 166.743C409.678 166.85 409.658 166.96 409.65 167.071V167.071Z" fill="black"/>
<path opacity="0.1" d="M429.89 249.734C429.89 249.734 387.123 222.921 403.753 192.011C407.182 185.838 409.197 178.98 409.653 171.933C410.625 179.567 415.893 189.057 425.483 202.193C429.643 207.913 431.432 215.911 431.999 223.904L432.951 224.596L437.631 221.767C438.151 212.927 439.94 203.993 444.173 197.659C455.296 181.018 457.938 172.698 457.116 164.076C461.38 173.348 467.298 182.953 468.952 193.369C472.314 214.772 429.89 249.734 429.89 249.734Z" fill="black"/>
<path d="M498.45 185.328C472.969 183.477 456.85 163.695 456.85 163.695C458.207 172.962 456.002 181.256 444.12 199.057C439.913 205.37 438.129 214.289 437.609 223.15L432.929 225.979L431.977 225.287C431.41 217.299 429.626 209.287 425.461 203.576C413.583 187.284 408.3 176.592 409.678 168.105C409.678 168.105 396.61 189.317 371.154 191.017C345.698 192.717 324.315 210.705 322.272 243.628L330.416 254.828H410.745L410.714 255H539.16L547.335 242.764C545.289 206.821 523.931 187.179 498.45 185.328Z" fill="#10D6A6"/>
<path opacity="0.05" d="M498.45 185.328C472.969 183.477 456.85 163.695 456.85 163.695C458.207 172.962 456.002 181.256 444.12 199.057C439.913 205.37 438.129 214.289 437.609 223.15L432.929 225.979L431.977 225.287C431.41 217.299 429.626 209.287 425.461 203.576C413.583 187.284 408.3 176.592 409.678 168.105C409.678 168.105 396.61 189.317 371.154 191.017C345.698 192.717 324.315 210.705 322.272 243.628L330.416 254.828H410.745L410.714 255H539.16L547.335 242.764C545.289 206.821 523.931 187.179 498.45 185.328Z" fill="black"/>
<path opacity="0.1" d="M462.241 96.9449C460.161 102.093 456.469 106.445 452.433 110.258C446.858 115.536 439.848 120.185 432.183 119.827C436.362 115.934 439.387 110.964 440.925 105.464C436.089 108.283 432.433 112.744 427.815 115.922C423.197 119.1 416.671 120.737 412.157 117.422C420.356 113.299 427.167 106.864 431.747 98.9109C420.785 101.756 415.158 114.101 405.283 119.644C400.566 122.142 395.269 123.337 389.937 123.107C386.167 123.029 381.965 122.15 379.864 119.02C378.754 117.109 378.213 114.92 378.304 112.712C378.075 102.738 382.137 92.9509 388.393 85.1869C394.649 77.4229 402.954 71.5209 411.836 66.9389C414.94 65.185 418.311 63.9552 421.815 63.2989C426.194 62.6649 430.656 63.5989 434.951 64.5829C440.536 65.8619 446.151 67.2659 451.295 69.7829C462.272 75.2179 467.067 85.0679 462.241 96.9449Z" fill="black"/>
<path d="M462.241 96.2629C460.161 101.411 456.469 105.763 452.433 109.576C446.858 114.854 439.848 119.503 432.183 119.145C436.362 115.252 439.387 110.282 440.925 104.782C436.089 107.601 432.433 112.062 427.815 115.24C423.197 118.418 416.671 120.055 412.157 116.74C420.355 112.618 427.166 106.183 431.746 98.2319C420.784 101.077 415.157 113.422 405.282 118.965C400.565 121.463 395.268 122.658 389.936 122.428C386.166 122.35 381.964 121.471 379.863 118.341C378.753 116.43 378.212 114.241 378.303 112.033C378.074 102.059 382.136 92.2719 388.392 84.5079C394.648 76.7439 402.952 70.8389 411.835 66.2579C414.939 64.5041 418.31 63.2742 421.814 62.6179C426.193 61.9839 430.655 62.9179 434.95 63.9019C440.535 65.1809 446.15 66.5849 451.294 69.1019C462.272 74.5259 467.067 84.3859 462.241 96.2629Z" fill="#F7D6C8"/>
<path d="M132.253 159.655C165.807 159.655 193.008 132.454 193.008 98.8999C193.008 65.3459 165.807 38.1449 132.253 38.1449C98.699 38.1449 71.4981 65.3459 71.4981 98.8999C71.4981 132.454 98.699 159.655 132.253 159.655Z" fill="#C3705A"/>
<path d="M186.732 215.828C186.732 215.828 131.089 230.082 129.711 231.428C128.333 232.774 82.872 235.162 96.111 207.328C100.973 197.109 102.996 183.228 103.611 169.756C103.637 169.184 103.663 168.617 103.684 168.05C104.114 153.502 103.4 138.943 101.547 124.508C101.547 124.508 166.03 99.0269 161.282 137.748C160.247 147.258 160.907 156.877 163.232 166.157C163.95 169.194 164.792 172.163 165.732 175.044C170.622 189.625 177.703 203.378 186.732 215.828V215.828Z" fill="#ECB4B6"/>
<path opacity="0.1" d="M163.22 166.171C154.668 172.512 144.383 176.091 133.742 176.429C123.101 176.767 112.61 173.849 103.672 168.064C104.103 153.516 103.388 138.957 101.535 124.522C101.535 124.522 166.018 99.041 161.27 137.762C160.24 147.273 160.9 156.89 163.22 166.171V166.171Z" fill="black"/>
<path d="M132.081 175.432C160.948 175.432 184.349 152.031 184.349 123.164C184.349 94.2971 160.948 70.8959 132.081 70.8959C103.214 70.8959 79.8131 94.2971 79.8131 123.164C79.8131 152.031 103.214 175.432 132.081 175.432Z" fill="#ECB4B6"/>
<path opacity="0.1" d="M186.732 215.828C186.732 215.828 131.089 230.082 129.711 231.428C128.333 232.774 82.872 235.162 96.111 207.328C100.973 197.109 102.996 183.228 103.611 169.756C104.131 176.797 108.156 193.849 108.671 199.522C108.705 199.854 108.772 200.181 108.871 200.5C109.625 203.022 112.314 205.929 115.553 208.685L115.745 208.846C119.775 212.226 124.776 214.237 130.024 214.587C135.272 214.938 140.495 213.61 144.939 210.796C149.564 207.882 154.004 204.683 158.231 201.217C164.284 196.217 166.172 189.485 166.406 183.536C166.503 180.68 166.276 177.823 165.73 175.018C170.617 189.609 177.699 203.371 186.732 215.828V215.828Z" fill="black"/>
<path d="M256.991 255.204H29.9061C29.9061 255.204 34.6591 232.125 35.3351 227.372C35.7041 224.772 40.0151 215.411 46.9991 207.283C52.8131 200.523 60.4831 194.568 69.2771 194.106C85.7361 193.243 103.557 170.006 103.557 170.006C103.957 176.766 108.123 194.421 108.648 200.214C108.682 200.546 108.749 200.874 108.848 201.192C109.602 203.714 112.291 206.621 115.53 209.377L115.722 209.538C119.751 212.92 124.751 214.932 130 215.283C135.248 215.635 140.472 214.307 144.916 211.493C149.54 208.578 153.98 205.379 158.208 201.914C164.261 196.914 166.149 190.182 166.383 184.233C166.503 180.284 166.024 176.339 164.963 172.533C164.809 171.933 164.625 171.341 164.412 170.76L165.135 171.067C165.135 171.067 195.884 193.428 224.054 202.567C227.356 203.642 230.471 205.22 233.29 207.247C235.573 208.898 237.675 210.786 239.561 212.879C243.374 217.191 246.529 222.044 248.922 227.279C252.973 236.139 255.692 245.549 256.991 255.204V255.204Z" fill="#10D6A6"/>
<path opacity="0.05" d="M256.991 255.204H29.9061C29.9061 255.204 34.6591 232.125 35.3351 227.372C35.7041 224.772 40.0151 215.411 46.9991 207.283C52.8131 200.523 60.4831 194.568 69.2771 194.106C85.7361 193.243 103.557 170.006 103.557 170.006C103.957 176.766 108.123 194.421 108.648 200.214C108.682 200.546 108.749 200.874 108.848 201.192C109.602 203.714 112.291 206.621 115.53 209.377L115.722 209.538C119.751 212.92 124.751 214.932 130 215.283C135.248 215.635 140.472 214.307 144.916 211.493C149.54 208.578 153.98 205.379 158.208 201.914C164.261 196.914 166.149 190.182 166.383 184.233C166.503 180.284 166.024 176.339 164.963 172.533C164.809 171.933 164.625 171.341 164.412 170.76L165.135 171.067C165.135 171.067 195.884 193.428 224.054 202.567C227.356 203.642 230.471 205.22 233.29 207.247C235.573 208.898 237.675 210.786 239.561 212.879C243.374 217.191 246.529 222.044 248.922 227.279C252.973 236.139 255.692 245.549 256.991 255.204V255.204Z" fill="black"/>
<path opacity="0.1" d="M157.209 105.614C158.561 110.814 160.329 116.592 164.973 119.301C165.595 119.599 166.168 119.99 166.673 120.461C167.817 121.704 167.473 123.644 167.297 125.328C167.089 128.235 167.516 131.152 168.547 133.878C169.577 136.604 171.188 139.074 173.267 141.116C177.478 145.181 182.798 147.909 188.556 148.958C189.931 149.396 191.423 149.283 192.716 148.641C193.528 148.024 194.125 147.167 194.422 146.192C196.008 141.975 195.337 137.237 194.011 132.931C192.685 128.625 190.73 124.517 189.726 120.123C187.339 109.696 190.501 98.9229 191.926 88.3229C192.565 84.813 192.511 81.2118 191.765 77.7229C190.449 72.7409 186.82 68.7469 183.315 64.9669C181.538 62.8349 179.431 61.0005 177.075 59.5329C169.93 55.6279 160.731 59.0959 153.102 56.2519C150.049 55.1129 147.455 53.0329 144.548 51.5719C138.375 48.4519 131.059 48.2799 124.293 49.6999C117.527 51.1199 111.193 54.0369 104.912 56.9279L100.112 59.1019C93.352 62.2219 86.1121 65.7479 82.4671 72.2739C78.5931 79.2219 79.667 88.1139 75.795 95.0619C74.62 97.1419 72.982 99.1389 72.675 101.531C72.5975 103.276 72.8751 105.018 73.4911 106.653C74.8541 110.676 75.5838 114.887 75.6541 119.134C75.5601 123.377 74.208 127.725 71.203 130.71C69.934 131.968 68.2391 133.581 69.0191 135.187C69.275 135.636 69.6308 136.02 70.059 136.31C72.5276 138.185 75.4293 139.406 78.4955 139.86C81.5616 140.315 84.6929 139.988 87.599 138.91C89.9203 138.124 91.9263 136.61 93.319 134.594C94.1764 133.089 94.7973 131.461 95.16 129.768C96.803 123.647 98.4601 117.423 98.3271 111.083C98.2541 107.443 97.589 103.771 98.119 100.162C98.649 96.5529 100.756 92.8349 104.266 91.8419C106.866 91.0979 109.648 91.9979 112.366 91.9719C116.277 91.9409 121.071 87.6039 124.696 88.8779C127.816 89.9779 130.286 95.9499 132.866 98.2379C139.403 104.074 148.535 107.127 157.209 105.614Z" fill="black"/>
<path d="M157.208 104.933C158.56 110.133 160.328 115.911 164.972 118.62C165.585 118.912 166.152 119.294 166.652 119.754C167.796 120.997 167.452 122.937 167.276 124.621C167.069 127.528 167.495 130.445 168.526 133.171C169.556 135.897 171.167 138.367 173.246 140.409C177.457 144.474 182.777 147.202 188.535 148.251C189.91 148.689 191.402 148.576 192.695 147.934C193.507 147.317 194.104 146.46 194.401 145.485C195.987 141.268 195.316 136.53 193.99 132.224C192.664 127.918 190.709 123.81 189.705 119.416C187.318 108.989 190.48 98.2159 191.905 87.6159C192.544 84.106 192.49 80.5048 191.744 77.0159C190.428 72.0339 186.799 68.0399 183.294 64.2599C181.517 62.1279 179.41 60.2935 177.054 58.8259C169.909 54.9209 160.71 58.3889 153.081 55.5449C150.028 54.4059 147.434 52.3259 144.527 50.8649C138.354 47.7449 131.038 47.5729 124.272 48.9929C117.506 50.4129 111.172 53.3299 104.891 56.2209L100.154 58.4049C93.3941 61.5249 86.1541 65.0509 82.5091 71.5769C78.6351 78.5249 79.7091 87.4169 75.8371 94.3649C74.6621 96.4449 73.0241 98.4419 72.7171 100.834C72.6395 102.579 72.9171 104.321 73.5331 105.956C74.8961 109.979 75.6258 114.19 75.696 118.437C75.602 122.68 74.2501 127.028 71.2451 130.013C69.9761 131.271 68.2811 132.884 69.0611 134.49C69.317 134.939 69.6728 135.323 70.101 135.613C72.5696 137.488 75.4714 138.709 78.5375 139.163C81.6036 139.618 84.7349 139.291 87.6411 138.213C89.9623 137.427 91.9683 135.913 93.3611 133.897C94.2184 132.392 94.8393 130.764 95.2021 129.071C96.8451 122.95 98.5021 116.726 98.3691 110.386C98.2961 106.746 97.6311 103.074 98.1611 99.4649C98.6911 95.8559 100.798 92.1379 104.308 91.1449C106.908 90.4009 109.69 91.3009 112.408 91.2749C116.319 91.2439 121.113 86.9069 124.738 88.1809C127.858 89.2809 130.328 95.2529 132.908 97.5409C139.403 103.399 148.534 106.451 157.208 104.933Z" fill="#C3705A"/>
<path d="M331.324 127.132H212.186V229.296H331.324V127.132Z" fill="#463A3E"/>
<path opacity="0.05" d="M331.324 127.132H212.186V229.296H331.324V127.132Z" fill="black"/>
<path d="M314.246 274.102H212.316C213.632 266.681 217.48 258.548 224.979 249.78C230.901 242.888 235.745 235.138 239.346 226.795C240.313 224.566 241.18 222.332 241.946 220.095C244.199 213.445 245.731 206.572 246.517 199.595C246.529 199.396 246.552 199.198 246.585 199.002C247.11 194.181 247.322 189.331 247.219 184.483C247.219 184.135 247.219 183.797 247.219 183.443C246.855 171.546 244.887 159.753 241.369 148.383L241.239 147.977C240.131 144.488 239.32 142.527 239.32 142.527C239.32 142.527 241.343 141.427 244.681 139.812L244.962 139.677C257.24 133.777 286.304 121.477 299.118 130.244L299.326 130.384C303.809 133.577 306.226 139.438 305.088 149.199V149.313C305.078 149.487 305.059 149.661 305.031 149.833C304.345 156.561 304.02 163.32 304.059 170.083V171.123C304.059 172.707 304.076 174.312 304.111 175.938V176.593C304.211 181.845 304.449 187.269 304.777 192.771C305.229 200.4 305.877 208.171 306.618 215.793C306.935 219.054 307.278 222.293 307.658 225.481C307.7 225.855 307.741 226.24 307.783 226.609C308.22 230.494 308.672 234.3 309.135 237.992L309.166 238.231C310.929 252.895 312.884 265.698 314.246 274.102Z" fill="#C17174"/>
<path opacity="0.1" d="M305.041 149.218V149.332C304.308 156.241 303.961 163.185 304.001 170.132V171.172C297.158 179.116 287.973 184.688 277.766 187.088C267.559 189.488 256.854 188.592 247.188 184.53V183.49C246.822 171.451 244.81 159.518 241.208 148.024C240.1 144.535 239.289 142.574 239.289 142.574C239.289 142.574 241.312 141.474 244.651 139.859C256.809 133.983 286.477 121.294 299.28 130.405C303.757 133.596 306.17 139.457 305.041 149.218Z" fill="black"/>
<path d="M266.435 187.346C293.811 187.346 316.004 165.153 316.004 137.777C316.004 110.401 293.811 88.2079 266.435 88.2079C239.059 88.2079 216.866 110.401 216.866 137.777C216.866 165.153 239.059 187.346 266.435 187.346Z" fill="#C17174"/>
<path opacity="0.1" d="M269.061 273.764H163.314C163.314 273.764 168.067 250.685 168.743 245.932C169.112 243.332 173.423 233.971 180.407 225.843C189.377 218.686 200.487 214.742 211.962 214.643C232.186 214.343 238.073 221.305 239.669 226.453C240.227 228.179 240.369 230.012 240.085 231.804L243.912 237.347L269.061 273.764Z" fill="black"/>
<path d="M268.723 274.102H162.976C162.976 274.102 167.729 251.023 168.405 246.27C168.774 243.67 173.085 234.309 180.069 226.181C189.039 219.024 200.149 215.08 211.624 214.981C231.848 214.681 237.735 221.642 239.331 226.791C239.889 228.517 240.031 230.35 239.747 232.142L243.574 237.685L268.723 274.102Z" fill="#10D6A6"/>
<path opacity="0.1" d="M384.159 273.764H273.362C278.645 262.521 292.494 232.547 293.262 225.615C293.562 222.932 296.419 220.415 300.204 218.277C301.4 217.592 302.63 216.971 303.891 216.415L304.12 216.315C304.813 216.01 305.515 215.727 306.226 215.467C315.81 211.959 326.34 212.042 335.867 215.701C344.967 219.159 356.667 223.819 365.779 228.182L365.852 228.218C368.192 229.341 370.371 230.438 372.29 231.494C376.128 233.6 378.931 235.524 380.007 237.063C380.501 237.77 381.047 240.963 381.645 245.903C382.443 252.589 383.311 262.511 384.159 273.764Z" fill="black"/>
<path d="M384.497 274.102H273.7C278.984 262.859 292.832 232.885 293.6 225.953C293.9 223.27 296.756 220.753 300.542 218.615C301.738 217.93 302.968 217.309 304.229 216.753L304.458 216.653C305.151 216.348 305.853 216.065 306.564 215.805C316.148 212.297 326.678 212.38 336.205 216.039C345.305 219.497 357.005 224.157 366.117 228.52L366.19 228.556C368.53 229.679 370.709 230.777 372.628 231.832C376.466 233.938 379.269 235.862 380.345 237.402C380.839 238.109 381.385 241.297 381.983 246.242C382.79 252.927 383.649 262.854 384.497 274.102Z" fill="#10D6A6"/>
<path opacity="0.1" d="M366.665 219.734C366.665 221.334 366.622 222.934 366.535 224.534C366.486 225.314 366.427 226.094 366.358 226.874C366.311 227.436 366.258 227.992 366.197 228.548L366.124 229.193C365.276 236.754 363.711 244.274 363.524 251.871V252.947C363.619 260.077 364.519 267.174 366.207 274.102H302.4C302.3 272.807 302.244 271.502 302.26 270.217C302.265 269.053 302.329 267.89 302.452 266.733C303.435 257.159 308.328 248.199 309.067 238.688L309.098 238.251C309.145 237.539 309.171 236.821 309.16 236.103V235.911C309.079 232.766 308.595 229.645 307.719 226.623L307.594 226.171C306.702 223.174 305.661 220.224 304.474 217.331L304.245 216.754C302.513 212.427 300.693 208.137 299.461 203.836C298.482 200.633 297.977 197.305 297.961 193.956C297.961 193.356 297.997 192.756 298.044 192.162C298.086 191.673 298.144 191.184 298.216 190.69C298.33 189.918 298.483 189.153 298.674 188.397C299.714 184.297 301.935 180.456 304.061 176.65C306.427 172.412 308.684 168.22 309.09 163.764C309.141 163.199 309.16 162.631 309.147 162.064V162.064C309.131 161.335 309.061 160.609 308.939 159.89C308.393 156.728 306.765 153.884 305.429 150.966C305.294 150.666 305.159 150.373 305.029 150.072C305.029 150.025 304.987 149.978 304.972 149.932C302.372 143.926 300.864 137.519 299.278 131.143C299.21 130.867 299.143 130.592 299.07 130.321C298.68 128.761 298.28 127.201 297.853 125.641C295.523 117.133 292.205 108.541 285.892 102.396C279.579 96.2509 269.511 93.1449 261.607 97.0549C254.769 100.461 251.066 108.085 249.397 115.532C247.728 122.979 247.597 130.753 245.424 138.075C245.268 138.608 245.095 139.142 244.904 139.675C244.81 139.945 244.717 140.195 244.623 140.491C243.656 143.177 242.548 145.81 241.305 148.38L241.175 148.656C237.223 157.065 232.631 165.328 232.485 173.778V174.568C232.51 176.576 232.813 178.571 233.385 180.496C234.509 183.901 236.243 187.072 238.502 189.856C238.935 190.421 239.379 190.981 239.833 191.536C242.017 194.219 244.388 196.819 246.463 199.586L246.531 199.674C248.109 201.717 249.441 203.939 250.499 206.294C251.753 209.244 252.407 212.413 252.425 215.618C252.442 218.823 251.821 222 250.599 224.963C250.01 226.332 249.334 227.663 248.576 228.946C247.24 231.255 245.768 233.501 244.608 235.904C244.219 236.706 243.872 237.527 243.568 238.364C240.968 245.064 240.406 252.472 238.284 259.383C236.641 264.689 234.084 269.668 230.728 274.095H163.128C163.913 270.252 167.808 251.214 168.422 246.939C168.791 244.339 173.102 234.978 180.086 226.85C179.499 227.313 178.932 227.779 178.386 228.25C173.982 232.003 170.166 236.396 167.065 241.282C167.216 240.814 167.372 240.341 167.528 239.873C168.48 237.034 169.509 234.22 170.555 231.443C173.582 223.443 176.955 215.286 182.984 209.222C186.39 205.8 190.535 203.164 193.784 199.591C199.504 193.304 201.87 184.591 201.803 176.055C201.803 175.171 201.767 174.292 201.709 173.413C201.09 164.053 197.892 155.092 194.429 146.372C192.567 141.692 190.591 136.772 190.68 131.811C190.686 131.115 190.736 130.42 190.831 129.731C192.261 119.45 202.662 113.293 208.907 104.999C218.195 92.6589 218.871 74.3169 231.055 64.8429C240.416 57.5629 253.416 58.0099 265.236 58.7999C276.229 59.5379 286.151 60.9679 297.062 62.4999C307.973 64.0319 319.043 66.8999 327.796 73.6239C333.449 77.9609 337.858 83.7069 341.774 89.6619C347.016 97.6389 351.597 106.448 352.227 115.97C352.274 116.651 352.3 117.327 352.3 117.998C352.409 129.127 347.578 139.912 346.939 151.087C346.913 151.607 346.892 152.127 346.887 152.647C346.884 152.674 346.884 152.702 346.887 152.73C346.773 162.418 350.487 172.59 355.551 180.811C362.738 192.528 366.582 205.988 366.665 219.734Z" fill="black"/>
<path d="M366.665 219.733C366.665 221.106 366.613 222.484 366.535 223.852C366.486 224.632 366.427 225.412 366.358 226.192C366.289 226.972 366.211 227.745 366.124 228.511C365.276 236.072 363.711 243.592 363.524 251.189V252.941C363.693 260.075 364.644 267.169 366.358 274.096H302.458C302.338 272.801 302.266 271.496 302.258 270.211C302.244 268.822 302.308 267.433 302.45 266.051C303.433 256.477 308.326 247.517 309.065 238.006C309.117 237.306 309.153 236.612 309.159 235.926V235.437C309.093 232.071 308.57 228.729 307.604 225.504C306.712 222.507 305.671 219.557 304.484 216.664C302.684 212.145 300.755 207.657 299.466 203.143C298.558 200.15 298.054 197.049 297.966 193.923C297.951 193.097 297.979 192.271 298.049 191.448C298.091 190.959 298.149 190.47 298.221 189.976C298.335 189.204 298.488 188.439 298.679 187.683C299.719 183.583 301.94 179.742 304.066 175.936C306.437 171.693 308.705 167.491 309.105 163.029C309.136 162.691 309.152 162.348 309.162 161.989C309.187 161.033 309.117 160.076 308.954 159.134C308.408 155.972 306.78 153.128 305.444 150.21C305.309 149.91 305.174 149.617 305.044 149.316C302.407 143.273 300.884 136.835 299.293 130.387C298.835 128.546 298.367 126.705 297.873 124.88C295.543 116.372 292.226 107.78 285.912 101.635C279.598 95.4899 269.547 92.4459 261.648 96.3779C254.81 99.7839 251.107 107.408 249.438 114.855C247.769 122.302 247.638 130.076 245.465 137.398C245.226 138.204 244.945 139.01 244.68 139.811C243.713 142.552 242.506 145.271 241.237 147.975C237.176 156.602 232.449 165.089 232.547 173.775V173.884C232.572 175.892 232.875 177.887 233.447 179.812C234.571 183.217 236.304 186.388 238.564 189.172C238.997 189.737 239.441 190.297 239.895 190.852C242.105 193.567 244.502 196.193 246.595 198.99C248.173 201.033 249.505 203.255 250.563 205.61C251.817 208.56 252.472 211.729 252.489 214.934C252.506 218.139 251.885 221.316 250.663 224.279C250.074 225.648 249.398 226.979 248.64 228.262C247.304 230.571 245.832 232.817 244.672 235.22C244.283 236.022 243.936 236.843 243.632 237.68C241.032 244.38 240.47 251.788 238.348 258.7C236.618 264.279 233.881 269.495 230.272 274.088H162.972C162.972 274.088 167.725 251.009 168.401 246.256C168.739 243.879 172.384 235.856 178.365 228.247C178.885 227.547 179.478 226.853 180.065 226.167C175.175 230.033 170.937 234.658 167.512 239.867L167.049 240.595C168.131 237.272 169.322 233.995 170.544 230.756C173.571 222.756 176.944 214.599 182.973 208.535C186.379 205.113 190.524 202.477 193.773 198.904C199.327 192.783 201.729 184.343 201.792 176.023C201.792 174.91 201.792 173.803 201.698 172.7C201.079 163.34 197.881 154.379 194.418 145.659C192.645 141.176 190.778 136.507 190.669 131.753C190.645 130.837 190.695 129.92 190.82 129.012C192.255 118.788 202.656 112.657 208.901 104.337C218.189 91.9969 218.865 73.6549 231.049 64.1809C240.409 56.9009 253.41 57.3479 265.23 58.1379C276.223 58.8759 286.145 60.3059 297.056 61.8379C307.967 63.3699 319.056 66.2319 327.795 72.9379C333.448 77.3009 337.858 83.0209 341.773 88.9809C347.015 96.9579 351.596 105.767 352.225 115.289C352.288 116.194 352.312 117.097 352.298 117.998C352.21 128.882 347.561 139.459 346.937 150.411C346.895 151.149 346.875 151.883 346.885 152.626C346.882 152.653 346.882 152.681 346.885 152.709C346.947 162.194 350.608 172.085 355.549 180.099C362.864 192.022 366.713 205.747 366.667 219.735L366.665 219.733Z" fill="#463A3E"/>
<defs>
<linearGradient id="paint0_linear" x1="288.635" y1="275.995" x2="288.635" y2="36.2564" gradientUnits="userSpaceOnUse">
<stop stop-color="#808080" stop-opacity="0.251"/>
<stop offset="0.54" stop-color="#808080" stop-opacity="0.122"/>
<stop offset="1" stop-color="#808080" stop-opacity="0.102"/>
</linearGradient>
</defs>
</svg>
