<svg width="1981" height="2206" viewBox="0 0 1981 2206" fill="none" xmlns="http://www.w3.org/2000/svg">
<path d="M0 155.01L55.011 133.71C110.022 112.01 220.045 70.0099 330.067 69.7099C440.09 70.0099 550.112 112.01 660.134 96.3099C770.157 80.0099 880.179 6.00992 990.2 0.30992C1100.22 -4.99008 1210.24 59.0099 1320.27 91.0099C1430.29 123.01 1540.31 123.01 1650.33 128.31C1760.36 134.01 1870.38 144.01 1925.39 149.71L1980.4 155.01V187.01H0V155.01Z" fill="#10D6A6"/>
<path d="M0 281.374V95.0609C53.333 111.061 213.333 148.361 320 143.061C426.667 137.361 533.333 95.3609 640 68.3609C746.667 41.3609 853.333 31.3609 960 47.0609C1066.67 63.3609 1173.33 105.361 1280 95.0609C1386.67 84.3609 1493.33 20.3609 1600 4.36092C1706.67 -11.6391 1813.33 20.3609 1866.67 36.3609L1920 52.3609V2204.53H0V281.374Z" fill="#3454D1"/>
<path d="M0 2194.83L53.333 2180.55C106.666 2166.4 213.333 2137.64 320 2137.74C426.667 2137.64 533.333 2166.4 640 2171.65C746.667 2177.1 853.333 2159.04 960 2155.6C1066.67 2152.02 1173.33 2162.72 1280 2169.85C1386.67 2177.1 1493.33 2180.45 1600 2173.42C1706.67 2166.4 1813.33 2148.34 1866.67 2139.54L1920 2130.61V2205.53H0V2194.83Z" fill="#F3F3F3"/>
</svg>
